<?xml version="1.0" encoding="UTF-8" standalone="no"?>
<!-- Created with Inkscape (http://www.inkscape.org/) -->

<svg
   width="100mm"
   height="100mm"
   viewBox="0 0 100 100"
   version="1.1"
   id="svg5"
   inkscape:export-filename="C:\TRMO\RiderProjects\SpeechTimer\UI\wwwroot\images\Pause.png"
   inkscape:export-xdpi="114.77"
   inkscape:export-ydpi="114.77"
   sodipodi:docname="Hair2.svg"
   inkscape:version="1.4.4 (dcaf3e7, 2026-05-05)"
   xml:space="preserve"
   xmlns:inkscape="http://www.inkscape.org/namespaces/inkscape"
   xmlns:sodipodi="http://sodipodi.sourceforge.net/DTD/sodipodi-0.dtd"
   xmlns="http://www.w3.org/2000/svg"
   xmlns:svg="http://www.w3.org/2000/svg"><sodipodi:namedview
     id="namedview7"
     pagecolor="#ffffff"
     bordercolor="#666666"
     borderopacity="1.0"
     inkscape:pageshadow="2"
     inkscape:pageopacity="0.0"
     inkscape:pagecheckerboard="true"
     inkscape:document-units="mm"
     showgrid="false"
     inkscape:zoom="1.5536476"
     inkscape:cx="217.55255"
     inkscape:cy="150.29148"
     inkscape:window-width="1962"
     inkscape:window-height="1403"
     inkscape:window-x="2082"
     inkscape:window-y="0"
     inkscape:window-maximized="0"
     inkscape:current-layer="layer1"
     inkscape:showpageshadow="0"
     inkscape:deskcolor="#505050"><inkscape:page
       x="0"
       y="0"
       width="100"
       height="100"
       id="page2"
       margin="0"
       bleed="0" /></sodipodi:namedview><defs
     id="defs2" /><g
     inkscape:label="Layer 1"
     inkscape:groupmode="layer"
     id="layer1"
     transform="translate(-79.280366,-88.135865)"><path
       style="opacity:1;fill:#ffffff;stroke:none;stroke-width:0.1"
       d="m 112.14791,130.96585 c 2.59717,-11.91684 2.79142,-15.93295 7.32282,-18.64765 4.10565,-0.33053 7.4029,1.63804 11.15453,1.53269 3.55555,-0.0999 5.99871,-1.87584 10.47334,-2.04358 5.83702,3.49367 6.13073,17.37041 6.13073,17.37041 0,0 2.96528,-11.15786 2.89507,-16.85952 -0.0506,-4.10768 -2.38417,-12.09117 -2.38417,-12.09117 0,0 -0.71955,1.38428 -2.21388,2.21388 -0.55769,-7.089267 -6.81193,-10.558486 -6.81193,-10.558486 0,0 -0.26564,2.845361 -1.70298,3.065367 -2.28883,-2.504765 -7.57826,-4.172304 -7.57826,-4.172304 0,0 0.54895,3.263681 -1.10694,4.512901 -1.91134,-3.689427 -6.89708,-6.130734 -6.89708,-6.130734 0,0 1.17343,4.677551 0.1703,6.301032 0.27411,0.431394 -2.03887,-3.647145 -3.74656,-2.639621 0.0734,2.586099 1.13956,4.76874 -2.29902,8.429755 -4.83995,3.26533 -9.66455,14.89707 -3.40597,29.71703 z"
       id="path1"
       sodipodi:nodetypes="ccsccaccccccccccc" /></g></svg>
