<?xml version="1.0" encoding="UTF-8" standalone="no"?>
<!-- Created with Inkscape (http://www.inkscape.org/) -->

<svg
   width="100mm"
   height="100mm"
   viewBox="0 0 100 100"
   version="1.1"
   id="svg5"
   inkscape:export-filename="C:\TRMO\RiderProjects\SpeechTimer\UI\wwwroot\images\Pause.png"
   inkscape:export-xdpi="114.77"
   inkscape:export-ydpi="114.77"
   sodipodi:docname="Hair1.svg"
   inkscape:version="1.1 (c68e22c387, 2021-05-23)"
   xmlns:inkscape="http://www.inkscape.org/namespaces/inkscape"
   xmlns:sodipodi="http://sodipodi.sourceforge.net/DTD/sodipodi-0.dtd"
   xmlns="http://www.w3.org/2000/svg"
   xmlns:svg="http://www.w3.org/2000/svg">
  <sodipodi:namedview
     id="namedview7"
     pagecolor="#ffffff"
     bordercolor="#666666"
     borderopacity="1.0"
     inkscape:pageshadow="2"
     inkscape:pageopacity="0.0"
     inkscape:pagecheckerboard="true"
     inkscape:document-units="mm"
     showgrid="false"
     inkscape:zoom="2"
     inkscape:cx="181.25"
     inkscape:cy="219.75"
     inkscape:window-width="1962"
     inkscape:window-height="1403"
     inkscape:window-x="2082"
     inkscape:window-y="0"
     inkscape:window-maximized="0"
     inkscape:current-layer="layer1" />
  <defs
     id="defs2" />
  <g
     inkscape:label="Layer 1"
     inkscape:groupmode="layer"
     id="layer1"
     transform="translate(-79.280366,-88.135865)">
    <circle
       style="fill:none;fill-opacity:1;stroke:#000000;stroke-width:1.0409;stroke-linecap:round;stroke-linejoin:round;stroke-miterlimit:4;stroke-dasharray:none;stroke-opacity:1"
       id="path13013"
       cx="129.28036"
       cy="138.13586"
       r="49.479549" />
    <path
       style="fill:#ffffff;stroke:none;stroke-width:0.264583px;stroke-linecap:butt;stroke-linejoin:miter;stroke-opacity:1;fill-opacity:1"
       d="m 134.79757,97.502264 c 0,0 0.72114,2.286117 -0.0851,2.639626 -4.019,1.76221 -14.99451,0.89129 -19.66944,4.59805 -4.67493,3.7068 -5.79637,7.84665 -6.55648,12.51691 -0.55888,3.43391 1.53268,9.96244 1.53268,9.96244 0,0 1.98511,-7.82116 3.32082,-10.47333 1.33571,-2.65217 0.99441,-4.02201 4.00201,-5.53469 3.0076,-1.51268 10.18146,0.5477 13.3684,0.17029 3.18694,-0.37741 4.31448,-1.09171 5.70499,-1.44753 1.39051,-0.35582 3.23566,-1.27723 3.23566,-1.27723 1.67673,0.55576 3.82994,4.6057 5.10895,6.89707 1.90767,3.4176 3.15051,10.89908 3.15051,10.89908 0,0 1.16876,-3.54382 1.53269,-5.19409 0.65585,-2.974 0.34665,-5.41243 -0.93664,-8.17431 -1.70839,-3.67679 -4.24791,-5.15134 -6.04558,-8.34462 -0.17984,-3.53387 -1.84035,-3.24223 -2.89507,-4.5129 -1.05473,-1.270666 -4.7684,-2.724766 -4.7684,-2.724766 z"
       id="path21432"
       sodipodi:nodetypes="cszscszzscscssczc" />
  </g>
</svg>
